<svg xmlns="http://www.w3.org/2000/svg" width="35" height="35" viewBox="0 0 35 35" fill="none">
    <circle cx="17.5" cy="17.5" r="17.5" fill="#0A73B9" />
    <mask id="mask0_693_29578" style="mask-type:alpha" maskUnits="userSpaceOnUse" x="0" y="0"
        width="35" height="35">
        <circle cx="17.5" cy="17.5" r="17.5" fill="#D9D9D9" />
    </mask>
    <g mask="url(#mask0_693_29578)">
        <path
            d="M17.6836 22C15.9648 22 14.4935 21.3635 13.2695 20.0906C12.0456 18.8177 11.4336 17.2875 11.4336 15.5C11.4336 13.7125 12.0456 12.1823 13.2695 10.9094C14.4935 9.63646 15.9648 9 17.6836 9C19.4023 9 20.8737 9.63646 22.0977 10.9094C23.3216 12.1823 23.9336 13.7125 23.9336 15.5C23.9336 17.2875 23.3216 18.8177 22.0977 20.0906C20.8737 21.3635 19.4023 22 17.6836 22ZM5.18359 35V30.45C5.18359 29.5292 5.41172 28.6825 5.86797 27.9101C6.32422 27.1377 6.92943 26.5489 7.68359 26.1438C9.29818 25.3042 10.9388 24.6742 12.6055 24.2539C14.2721 23.8335 15.9648 23.6239 17.6836 23.625C19.4023 23.625 21.095 23.8352 22.7617 24.2555C24.4284 24.6758 26.069 25.3053 27.6836 26.1438C28.4388 26.55 29.0445 27.1393 29.5008 27.9117C29.957 28.6842 30.1846 29.5303 30.1836 30.45V35H5.18359Z"
            fill="white" />
    </g>
</svg>